<?xml version="1.0" encoding="utf-8"?>
<!-- Generator: Adobe Illustrator 26.0.2, SVG Export Plug-In . SVG Version: 6.00 Build 0)  -->
<svg version="1.1" id="Layer_1" xmlns="http://www.w3.org/2000/svg" xmlns:xlink="http://www.w3.org/1999/xlink" x="0px" y="0px"
	 viewBox="0 0 411.8 318.2" style="enable-background:new 0 0 411.8 318.2;" xml:space="preserve">
<style type="text/css">
	.st0{fill:none;stroke:#FFFFFF;stroke-width:10;stroke-miterlimit:10;}
</style>
<path class="st0" d="M406.8,84.3V72c0-37-56-67-125-67H130C61,5,5,35,5,72v12.3c0,10.4,15.7,18.8,35,18.8h331.8
	C391.1,103.1,406.8,94.6,406.8,84.3z"/>
<path class="st0" d="M5,284.1L5,284.1c0,16.1,17.5,29.1,39,29.1h323.8c21.5,0,39-13.1,39-29.1l0,0c0-16.1-17.5-29.1-39-29.1H44
	C22.4,255,5,268,5,284.1z"/>
<path class="st0" d="M406.8,179L406.8,179c0-14.3-15.5-25.8-34.5-25.8H39.5C20.4,153.2,5,164.8,5,179l0,0
	c0,14.3,15.5,25.8,34.5,25.8h332.8C391.4,204.8,406.8,193.3,406.8,179z"/>
</svg>
