<?xml version="1.0" encoding="utf-8"?>
<!-- Generator: Adobe Illustrator 26.0.1, SVG Export Plug-In . SVG Version: 6.00 Build 0)  -->
<svg version="1.1" id="Layer_1" xmlns="http://www.w3.org/2000/svg" xmlns:xlink="http://www.w3.org/1999/xlink" x="0px" y="0px"
	 viewBox="0 0 784.6 784.6" style="enable-background:new 0 0 784.6 784.6;" xml:space="preserve">
<style type="text/css">
	.st0{fill:#FFFFFF;stroke:#FFFFFF;stroke-miterlimit:10;}
</style>
<image style="display:none;overflow:visible;enable-background:new    ;" width="2050" height="2052" xlink:href="76483B48E5D73F78.jpeg"  transform="matrix(0.5447 0 0 0.5447 -96.1461 -165.4269)">
</image>
<path class="st0" d="M392.3,0.1C175.7,0.1,0.1,175.7,0.1,392.3s175.6,392.2,392.2,392.2s392.2-175.6,392.2-392.2
	S608.9,0.1,392.3,0.1z M392.3,739.6C200.5,739.6,45,584.1,45,392.3S200.5,45,392.3,45s347.3,155.5,347.3,347.3
	S584.1,739.6,392.3,739.6z"/>
<g>
	<path class="st0" d="M593.2,305.4v-16.5c0-49.5-56-89.6-125-89.6H316.4c-69,0-125,40.1-125,89.6v16.5c0,13.9,15.7,25.1,35,25.1
		h331.8C577.5,330.5,593.2,319.2,593.2,305.4z"/>
	<path class="st0" d="M191.4,510.3L191.4,510.3c0,21.5,17.5,39,39,39h323.8c21.5,0,39-17.5,39-39v0c0-21.5-17.5-39-39-39H230.4
		C208.8,471.3,191.4,488.8,191.4,510.3z"/>
	<path class="st0" d="M593.2,400.9L593.2,400.9c0-19.1-15.5-34.5-34.5-34.5H225.9c-19.1,0-34.5,15.5-34.5,34.5v0
		c0,19.1,15.5,34.5,34.5,34.5h332.8C577.8,435.4,593.2,420,593.2,400.9z"/>
</g>
</svg>
