<?xml version="1.0" encoding="utf-8"?>
<!-- Generator: Adobe Illustrator 26.0.1, SVG Export Plug-In . SVG Version: 6.00 Build 0)  -->
<svg version="1.1" id="Layer_1" xmlns="http://www.w3.org/2000/svg" xmlns:xlink="http://www.w3.org/1999/xlink" x="0px" y="0px"
	 viewBox="0 0 402.8 351" style="enable-background:new 0 0 402.8 351;" xml:space="preserve">
<style type="text/css">
	.st0{fill:#FFFFFF;stroke:#FFFFFF;stroke-miterlimit:10;}
</style>
<image style="display:none;overflow:visible;enable-background:new    ;" width="2050" height="2052" xlink:href="76483B48E5D73F78.jpeg"  transform="matrix(0.5447 0 0 0.5447 -287.0322 -364.2526)">
</image>
<g>
	<path class="st0" d="M402.3,106.6V90.1c0-49.5-56-89.6-125-89.6H125.5c-69,0-125,40.1-125,89.6v16.5c0,13.9,15.7,25.1,35,25.1
		h331.8C386.7,131.6,402.3,120.4,402.3,106.6z"/>
	<path class="st0" d="M0.5,311.5L0.5,311.5c0,21.5,17.5,39,39,39h323.8c21.5,0,39-17.5,39-39v0c0-21.5-17.5-39-39-39H39.5
		C18,272.5,0.5,290,0.5,311.5z"/>
	<path class="st0" d="M402.3,202.1L402.3,202.1c0-19.1-15.5-34.5-34.5-34.5H35C16,167.6,0.5,183,0.5,202.1v0
		c0,19.1,15.5,34.5,34.5,34.5h332.8C386.9,236.6,402.3,221.1,402.3,202.1z"/>
</g>
</svg>
