<?xml version="1.0" encoding="utf-8"?>
<!-- Generator: Adobe Illustrator 26.0.2, SVG Export Plug-In . SVG Version: 6.00 Build 0)  -->
<svg version="1.1" id="Layer_1" xmlns="http://www.w3.org/2000/svg" xmlns:xlink="http://www.w3.org/1999/xlink" x="0px" y="0px"
	 viewBox="0 0 784.6 784.6" style="enable-background:new 0 0 784.6 784.6;" xml:space="preserve">
<style type="text/css">
	.st0{fill:none;stroke:#FFFFFF;stroke-width:10;stroke-miterlimit:10;}
</style>
<path class="st0" d="M593.2,290.1v-12.3c0-37-56-67-125-67H316.4c-69,0-125,30-125,67v12.3c0,10.4,15.7,18.8,35,18.8h331.8
	C577.5,308.9,593.2,300.4,593.2,290.1z"/>
<path class="st0" d="M191.4,489.9L191.4,489.9c0,16.1,17.5,29.1,39,29.1h323.8c21.5,0,39-13.1,39-29.1l0,0c0-16.1-17.5-29.1-39-29.1
	H230.4C208.8,460.8,191.4,473.8,191.4,489.9z"/>
<path class="st0" d="M593.2,384.8L593.2,384.8c0-14.3-15.5-25.8-34.5-25.8H225.9c-19.1,0-34.5,11.6-34.5,25.8l0,0
	c0,14.3,15.5,25.8,34.5,25.8h332.8C577.8,410.6,593.2,399.1,593.2,384.8z"/>
</svg>
