<?xml version="1.0" encoding="utf-8"?>
<!-- Generator: Adobe Illustrator 26.0.2, SVG Export Plug-In . SVG Version: 6.00 Build 0)  -->
<svg version="1.1" id="Layer_1" xmlns="http://www.w3.org/2000/svg" xmlns:xlink="http://www.w3.org/1999/xlink" x="0px" y="0px"
	 viewBox="0 0 738.3 187.8" style="enable-background:new 0 0 738.3 187.8;" xml:space="preserve">
<style type="text/css">
	.st0{enable-background:new    ;}
	.st1{fill:none;stroke:#00B498;stroke-width:7;}
</style>
<g class="st0">
	<path class="st1" d="M79.1,115.9c0,19.4-15.8,35-35.2,35s-35-15.7-35-35V63.1c0-19.4,15.7-35,35-35c19.4,0,35.2,15.7,35.2,35H61.5
		c0-9.7-7.9-17.4-17.6-17.4s-17.4,7.7-17.4,17.4v52.8c0,9.7,7.7,17.4,17.4,17.4s17.6-7.7,17.6-17.4L79.1,115.9L79.1,115.9z"/>
	<path class="st1" d="M158.3,150.9h-17.6V85.1c0-7.2-5.8-13.2-13-13.2s-13.2,6-13.2,13.2v65.8H96.9V23.7h17.6v38
		c4.6-4.6,10.4-7.4,17.4-7.4c15.8,0,26.4,13.9,26.4,30.8L158.3,150.9L158.3,150.9z"/>
	<path class="st1" d="M239.3,120.1c0,16.9-13.7,30.8-30.6,30.8s-30.8-13.9-30.8-30.8v-35c0-16.9,13.9-30.8,30.8-30.8
		s30.6,13.9,30.6,30.8v22h-43.8v13c0,7.2,6,13.2,13.2,13.2s13-6,13-13.2C221.7,120.1,239.3,120.1,239.3,120.1z M221.7,89.5v-4.4
		c0-7.2-5.8-13.2-13-13.2s-13.2,6-13.2,13.2v4.4H221.7z"/>
	<path class="st1" d="M300.3,71.9h-21.8v79h-17.6v-79h-8.8V54.3h8.8c0-19,11.6-30.6,30.6-30.6h8.8v16.7h-8.8c-9.3,0-13,4.6-13,13.9
		h21.8V71.9z"/>
	<path class="st1" d="M338.2,150.9c-16.9,0-30.8-13.9-30.8-30.8H325c0,7.2,6,13.2,13.2,13.2s13-4.9,13-10.9c0-6-5.8-10.9-13-10.9
		c-16.9,0-30.8-12.7-30.8-28.5s13.9-28.7,30.8-28.7s30.6,13.9,30.6,30.8h-17.6c0-7.2-5.8-13.2-13-13.2S325,77,325,83
		s6,10.9,13.2,10.9c16.9,0,30.6,12.7,30.6,28.5C368.8,138.3,355.1,150.9,338.2,150.9z"/>
	<path class="st1" d="M448.5,150.9h-17.6V85.1c0-7.2-5.8-13.2-13-13.2s-13.2,6-13.2,13.2v65.8h-17.6V54.3h17.6v7.4
		c4.6-4.6,10.4-7.4,17.4-7.4c15.8,0,26.4,13.9,26.4,30.8L448.5,150.9L448.5,150.9z"/>
	<path class="st1" d="M528.3,150.9h-17.6v-7.4c-4.6,4.6-10.4,7.4-17.4,7.4c-15.8,0-26.4-13.9-26.4-30.8s13.9-30.6,30.8-30.6h13v-4.4
		c0-7.2-5.8-13.2-13-13.2s-13.2,6-13.2,13.2h-17.6c0-16.9,13.9-30.8,30.8-30.8c16.9,0,30.6,13.9,30.6,30.8L528.3,150.9L528.3,150.9z
		 M510.7,107.1h-13c-7.2,0-13.2,5.8-13.2,13s6,13.2,13.2,13.2s13-6,13-13.2V107.1z"/>
	<path class="st1" d="M609.2,120.1c0,16.9-13.7,30.8-30.6,30.8s-30.8-13.9-30.8-30.8v-35c0-16.9,13.9-30.8,30.8-30.8
		s30.6,13.9,30.6,30.8h-17.6c0-7.2-5.8-13.2-13-13.2s-13.2,6-13.2,13.2v35c0,7.2,6,13.2,13.2,13.2s13-6,13-13.2
		C591.6,120.1,609.2,120.1,609.2,120.1z"/>
	<path class="st1" d="M685.6,120.1c0,16.9-13.7,30.8-30.6,30.8s-30.8-13.9-30.8-30.8v-35c0-16.9,13.9-30.8,30.8-30.8
		s30.6,13.9,30.6,30.8H668c0-7.2-5.8-13.2-13-13.2s-13.2,6-13.2,13.2v35c0,7.2,6,13.2,13.2,13.2s13-6,13-13.2
		C668,120.1,685.6,120.1,685.6,120.1z"/>
</g>
</svg>
