<?xml version="1.0" encoding="utf-8"?>
<!-- Generator: Adobe Illustrator 26.0.2, SVG Export Plug-In . SVG Version: 6.00 Build 0)  -->
<svg version="1.1" id="Layer_1" xmlns="http://www.w3.org/2000/svg" xmlns:xlink="http://www.w3.org/1999/xlink" x="0px" y="0px"
	 viewBox="0 0 816.6 784.6" style="enable-background:new 0 0 816.6 784.6;" xml:space="preserve">
<style type="text/css">
	.st0{fill:none;stroke:#00B498;stroke-width:31;stroke-miterlimit:10;}
	.st1{fill:none;stroke:#00B498;stroke-width:30;stroke-miterlimit:10;}
	.st2{fill:none;stroke:#00B498;stroke-width:26;stroke-miterlimit:10;}
	.st3{fill:none;stroke:#00B498;stroke-width:18;stroke-miterlimit:10;}
	.st4{fill:none;stroke:#00B498;stroke-width:16;stroke-miterlimit:10;}
	.st5{fill:none;stroke:#00B498;stroke-width:12;stroke-miterlimit:10;}
	.st6{fill:none;stroke:#00B498;stroke-width:23;stroke-miterlimit:10;}
	.st7{fill:none;stroke:#00B498;stroke-miterlimit:10;}
	.st8{fill:none;stroke:#00B498;stroke-width:20;stroke-linecap:round;stroke-miterlimit:10;}
	.st9{fill:#00B498;stroke:#00B498;stroke-miterlimit:10;}
	.st10{fill:none;stroke:#00B498;stroke-width:11;stroke-miterlimit:10;}
	.st11{fill:none;stroke:#00B498;stroke-width:19;stroke-linecap:round;stroke-miterlimit:10;}
</style>
<path class="st0" d="M262.4,64.7c46-21.7,97.3-33.8,151.6-33.8c196.5,0,355.7,159.3,355.7,355.7S610.5,742.3,414,742.3
	S58.3,583,58.3,386.6c0-42.1,7.3-82.5,20.7-120"/>
<path class="st1" d="M262.4,64.7"/>
<path class="st1" d="M79,266.6"/>
<image style="display:none;overflow:visible;enable-background:new    ;" width="2050" height="2052" xlink:href="76483B48E5D73F78.jpeg"  transform="matrix(0.5447 0 0 0.5447 -64.1461 -165.4269)">
</image>
<path class="st2" d="M73.2,198.4l79.1,127.8l145.4-105.3l-68.6-112.7c-1.9-3.1-2.6-6.8-2-10.4c2.9-18,10.5-73.8-9.1-73.3
	c-12.8,0.3-21.1,8.5-25.9,15.8c-3.4,5.2-10.7,6.2-15.5,2.1c-8.6-7.4-26.7-16.3-38-13.6c-12,2.9-15.7,26.2-17.7,39.5
	c-0.7,4.5-5.5,7.1-9.7,5.3c-13-5.8-36.9-15.9-48.1-6.7c-9.8,8-8.9,28.2-5.3,42.9c2.1,8.4-3,16.9-11.4,19.2
	c-17.7,4.9-37.2,11.5-32.8,30c5.3,22.4,38.3,31.1,51.2,33.7C68.4,193.4,71.3,195.4,73.2,198.4z"/>
<path class="st3" d="M528.7,279.5c19.6-16.5-28.1-125.2,22.5-131.6c38.2-4.8,35.1,43.7,35.1,43.7s37-28.8,52.4,8.9
	C660.8,254.2,509.1,296,528.7,279.5z"/>
<path class="st4" d="M673.1,503.8c0-16.1-3.2-34.7-17.3-63c-14.7-29.4-55.4-42.6-60.9-25.2c-3.8,12.1,7.4,6.3,24.9,22.1
	c6.5,5.8,7.6,6.1,15.8,27.5c5.7,14.9,9.7,29.8-11.8,31.2c-24,1.5-9.5-8-12.1-33c-2.1-19.6-20.2-20.1-27-17.5
	c-3.1,1.2,11.2,24-0.7,39.7c-10.2,13.4-13.2,12.3-17.1,33.8c-2.6,14.5,7.4,48.2,50,48.2C663.3,567.7,673.1,536.7,673.1,503.8z"/>
<path class="st3" d="M567.3,574.9c-0.5,9.2-2.9,17.4,3.7,28.9c8,13.8,37.4,18.8,43.8,16.9c18-5.3,22.4-19.9,22.8-29.2
	c0.1-1.2-27.5,1.3-39.4-1.6C568.5,582.6,567.6,570.8,567.3,574.9z"/>
<path class="st5" d="M554.7,386.6c0,0,29.5-5.5,48-43.3c19-43.9,6.4-60.2,6.4-60.2"/>
<path class="st5" d="M537.1,375.1c0,0,22.8-9.6,32-40.5s-3.8-40-3.8-40"/>
<path class="st6" d="M515,411.1c-5.1-5.4-6.7-13.4-4.1-20.5c5-14,13.6-27.8,7.7-35.3c-5.4-6.9-18.2-8-25.6-1.6c0,0,0,0,0-0.1
	c-26.8-62.6-88.7-106.3-160.7-106.3c-5.1,0-10.2,0.2-15.2,0.7L172.4,352c-9.6,21.8-15,46-15,71.4c0,97.2,78.3,176,174.9,176
	c83.5,0,153.4-58.9,170.7-137.8c10.4-0.5,24-13.9,24-25.8C527,426.1,520.7,417.2,515,411.1z"/>
<g>
	<path class="st7" d="M408.3,290.8"/>
</g>
<g>
	<path class="st8" d="M355.4,380.7c-6.7-13.6-6.2-30.7,2-43.5c9.1-14.2,26.4-19.4,42.4-15.1c8.9,2.4,17.1,7.7,22.8,14.9"/>
</g>
<g>
	<path class="st9" d="M478.1,347.9c-1,2.1-2.2,4-3.4,5.9c-1.2,1.9-2.5,3.8-3.7,5.6c-2.5,3.7-5.1,7.2-7.7,10.7
		c-1.3,1.7-2.6,3.5-3.7,5.1l-0.8,1.2c-0.3,0.4-0.4,0.7-0.5,1c-0.2,0.8-0.4,1.6-0.6,2.4c-0.6,3.1-0.6,6.1-0.6,9.3
		c0,3.2,0.2,6.9,0.1,11.1s-0.3,9-1.5,14.7c-0.6,2.8-1.5,5.9-2.9,9.1c-1.3,3.2-3.2,6.4-5.6,9.5c-0.6,0.7-1.2,1.5-1.9,2.2
		c-0.7,0.7-1.3,1.4-2,2.1l-0.5,0.5l-0.4,0.4l-0.8,0.7l-1.7,1.4c-1.1,0.9-2.3,1.7-3.4,2.6c-1.1,0.8-2.3,1.6-3.4,2.4
		c-9.3,5.9-18.9,9.6-29.1,11.7c-2.5,0.5-5.2,1-7.8,1.2c-1.4,0.1-2.7,0.3-4.1,0.3l-2.1,0.1c-0.7,0-1.5,0-2.3,0
		c-3-0.1-5.8-0.4-8.4-0.8s-5-1-7.4-1.7c-9.4-2.7-17.8-6.5-25.7-11c-4-2.3-7.8-4.7-11.5-7.4c-3.7-2.7-7.3-5.6-10.7-8.9
		c4.7-0.5,9.2-0.7,13.7-0.9c4.5-0.2,8.9-0.3,13.2-0.4c8.6-0.2,17-0.2,24.6-0.8c1.9-0.1,3.7-0.3,5.4-0.6c1.7-0.2,3.2-0.6,4.5-0.9
		l0.9-0.3l1.1-0.3c0.7-0.2,1.5-0.5,2.2-0.7c1.5-0.6,3.1-1.1,4.6-1.8c6.3-2.6,12.5-5.8,17.6-9.3l1.8-1.3l1.7-1.3l1.9-1.6
		c0.3-0.3,0.7-0.7,1.2-1.4c0.5-0.7,1-1.7,1.6-3c1.2-2.6,2.4-6.2,3.9-10.4c1.5-4.2,3.3-9,6-13.9c1.4-2.4,2.9-4.9,4.8-7.2
		c1.9-2.3,4-4.4,6.3-6.2c1.2-0.9,2.4-1.7,3.6-2.5c0.6-0.4,1.2-0.9,1.7-1.2c0.5-0.3,1.1-0.7,1.6-1c2-1.2,4-2.3,6-3.3
		c4-2,8-3.9,12-5.7C469.8,351.4,474,349.7,478.1,347.9z"/>
</g>
<line class="st10" x1="96.5" y1="177.5" x2="165" y2="275.5"/>
<line class="st10" x1="124.6" y1="151.1" x2="195" y2="255.8"/>
<line class="st10" x1="158.2" y1="127.9" x2="224.1" y2="234.4"/>
<line class="st10" x1="195.3" y1="115.2" x2="250.1" y2="216"/>
<path class="st11" d="M312.7,304.6c0,0,20.8-10.6,37.5-12.1c9.8-0.9,31.8-0.1,31.8-0.1"/>
</svg>
