<?xml version="1.0" encoding="utf-8"?>
<!-- Generator: Adobe Illustrator 25.2.2, SVG Export Plug-In . SVG Version: 6.00 Build 0)  -->
<svg version="1.1" id="Layer_1" xmlns="http://www.w3.org/2000/svg" xmlns:xlink="http://www.w3.org/1999/xlink" x="0px" y="0px"
	 viewBox="0 0 812.1 783.6" style="enable-background:new 0 0 812.1 783.6;" xml:space="preserve">
<style type="text/css">
	.st0{fill:none;stroke:#FF17F3;stroke-width:18;stroke-miterlimit:10;}
	.st1{fill:none;stroke:#FF17F3;stroke-width:16;stroke-miterlimit:10;}
	.st2{fill:none;stroke:#FF17F3;stroke-width:12;stroke-miterlimit:10;}
	.st3{fill:#FF00FF;}
</style>
<image style="display:none;overflow:visible;enable-background:new    ;" width="2050" height="2050" xlink:href="76483B48E5D73F78.jpeg"  transform="matrix(0.545 0 0 0.545 -68.5477 -165.6546)">
</image>
<path class="st0" d="M69.1,197.9l79.1,127.8l145.4-105.3L225,107.7c-1.9-3.1-2.6-6.8-2-10.4c2.9-18,10.5-73.8-9.1-73.3
	c-12.8,0.3-21.1,8.5-25.9,15.8c-3.4,5.2-10.7,6.2-15.5,2.1c-8.6-7.4-26.7-16.3-38-13.6c-12,2.9-15.7,26.2-17.7,39.5
	c-0.7,4.5-5.5,7.1-9.7,5.3c-13-5.8-36.9-15.9-48.1-6.7c-9.8,8-8.9,28.2-5.3,42.9c2.1,8.4-3,16.9-11.4,19.2
	c-17.7,4.9-37.2,11.5-32.8,30c5.3,22.4,38.3,31.1,51.2,33.7C64.3,192.9,67.2,194.9,69.1,197.9z"/>
<path class="st0" d="M524.6,279c19.6-16.5-28.1-125.2,22.5-131.6c38.2-4.8,35.1,43.7,35.1,43.7s37-28.8,52.4,8.9
	C656.7,253.7,505,295.5,524.6,279z"/>
<path class="st1" d="M669,503.3c0-16.1-3.2-34.7-17.3-63c-14.7-29.4-55.4-42.6-60.9-25.2c-3.8,12.1,7.4,6.3,24.9,22.1
	c6.5,5.8,7.6,6.1,15.8,27.5c5.7,14.9,9.7,29.8-11.8,31.2c-24,1.5-9.5-8-12.1-33c-2.1-19.6-20.2-20.1-27-17.5
	c-3.1,1.2,11.2,24-0.7,39.7c-10.2,13.4-13.2,12.3-17.1,33.8c-2.6,14.5,7.4,48.2,50,48.2C659.2,567.2,669,536.2,669,503.3z"/>
<path class="st0" d="M563.2,574.4c-0.5,9.2-2.9,17.4,3.7,28.9c8,13.8,37.4,18.8,43.8,16.9c18-5.3,22.4-19.9,22.8-29.2
	c0.1-1.2-27.5,1.3-39.4-1.6C564.4,582.1,563.5,570.3,563.2,574.4z"/>
<path class="st2" d="M550.6,386.1c0,0,29.5-5.5,48-43.3c19-43.9,6.4-60.2,6.4-60.2"/>
<path class="st2" d="M527.9,378c0,0,22.8-9.6,32-40.5s-3.8-40-3.8-40"/>
<path class="st0" d="M510.9,410.6c-5.1-5.4-6.7-13.4-4.1-20.5c5-14,13.6-27.8,7.7-35.3c-5.4-6.9-18.2-8-25.6-1.6c0,0,0,0,0-0.1
	c-26.8-62.6-88.7-106.3-160.7-106.3c-5.1,0-10.2,0.2-15.2,0.7l-144.7,104c-9.6,21.8-15,46-15,71.4c0,97.2,78.3,176,174.9,176
	c83.5,0,153.4-58.9,170.7-137.8c10.4-0.5,24-13.9,24-25.8C522.9,425.6,516.6,416.7,510.9,410.6z"/>
<path class="st0" d="M326.9,307c0,0,6.1,12.9,30.5,1.9c24.3-11,39.3-11.1,39.3-11.1s-14.8,0.5-39.3,11.1
	C332.9,319.4,326.9,307,326.9,307z"/>
<path class="st0" d="M364.7,379.3c0,0-0.2-30.9,21.2-47c16.7-12.7,43.8,24.5,43.8,24.5"/>
<path class="st0" d="M465.9,387.2c-3,2.8-6.7,4.6-9.8,7.3c-4.1,3.6-6.4,9.3-8.2,14c-4,10.6-7.1,20.9-15.9,29.3
	c-6.6,6.3-15.5,10-24.7,6.1c-8.2-3.5-14-10.5-21-15.5c-6.3-4.5,2.5-12.4,8.8-8c2.7,1.9,5.3,4.1,7.8,6.2c5.7,1.5,14.2,3.5,18-1.1
	c3.6-4.4,3.6-11.4,4.2-16.6c1.7-13.1,4.1-28.5,17-36.7c6.6-4.2,15.9-9.4,23.9-5.3C475.3,371.6,471.9,381.7,465.9,387.2z"/>
<line class="st0" x1="92.4" y1="177" x2="160.9" y2="275"/>
<line class="st0" x1="120.5" y1="150.6" x2="190.9" y2="255.3"/>
<line class="st0" x1="154.1" y1="127.4" x2="220" y2="233.9"/>
<line class="st0" x1="191.2" y1="114.7" x2="246" y2="215.5"/>
<path class="st3" d="M420.3,0c-59.8,0-116.5,13.4-167.2,37.4c-2.6,1.2-5.2,2.5-7.8,3.8c-0.9,14.9-3,29.1-4.3,37.2
	c-0.7,4.1,0.1,8.4,2,12c52-30.7,112.6-48.3,177.3-48.3C613.4,42.2,770,198.7,770,391.8S613.4,741.4,420.3,741.4
	S70.7,584.9,70.7,391.8c0-42.8,7.7-83.7,21.7-121.6l-27.3-44c-0.9,2-1.9,4-2.8,6c-21.8,48.7-33.9,102.8-33.9,159.6
	c0,216.4,175.4,391.8,391.8,391.8s391.8-175.4,391.8-391.8S636.7,0,420.3,0z"/>
</svg>
