<?xml version="1.0" encoding="utf-8"?>
<!-- Generator: Adobe Illustrator 25.2.2, SVG Export Plug-In . SVG Version: 6.00 Build 0)  -->
<svg version="1.1" id="Layer_1" xmlns="http://www.w3.org/2000/svg" xmlns:xlink="http://www.w3.org/1999/xlink" x="0px" y="0px"
	 viewBox="0 0 825.8 800.9" style="enable-background:new 0 0 825.8 800.9;" xml:space="preserve">
<defs>
    <filter id="shadow">
      <feDropShadow dx="0" dy="0" stdDeviation="12" flood-color="#FF17F3" />
    </filter>
    <filter id="shadow1">
      <feDropShadow dx="0" dy="0" stdDeviation="12" flood-color="#E82F89" />
    </filter>
<style type="text/css">
	.st0{fill:none;stroke:#FF17F3;stroke-width:18;stroke-miterlimit:10;filter:url(#shadow);}
	.st1{fill:#E82F89;filter:url(#shadow1);}
</style>
</defs>
<image style="display:none;overflow:visible;enable-background:new;" width="2050" height="2050" xlink:href="76483B48E5D73F78.jpeg"  transform="matrix(0.545 0 0 0.545 -68.5477 -162.2219)">
</image>
<path class="st0" d="M69.1,201.3l79.1,127.8l145.4-105.3L225,111.1c-1.9-3.1-2.6-6.8-2-10.4c2.9-18,10.5-73.8-9.1-73.3
	c-12.8,0.3-21.1,8.5-25.9,15.8c-3.4,5.2-10.7,6.2-15.5,2.1c-8.6-7.4-26.7-16.3-38-13.6c-12,2.9-15.7,26.2-17.7,39.5
	c-0.7,4.5-5.5,7.1-9.7,5.3c-13-5.8-36.9-15.9-48.1-6.7c-9.8,8-8.9,28.2-5.3,42.9c2.1,8.4-3,16.9-11.4,19.2
	c-17.7,4.9-37.2,11.5-32.8,30c5.3,22.4,38.3,31.1,51.2,33.7C64.3,196.3,67.2,198.4,69.1,201.3z"/>
<path class="st0" d="M524.6,282.5c19.6-16.5-28.1-125.2,22.5-131.6c38.2-4.8,35.1,43.7,35.1,43.7s37-28.8,52.4,8.9
	C656.7,257.2,505,298.9,524.6,282.5z"/>
<path class="st0" d="M576.6,549.1c4.3,4.5,8.3,9.5,13.6,13c10.1,6.6,22.5,9.7,34.3,11c6.3,0.7,12.7,0.7,19.2,0.3
	c6.5-15.1,11.3-28.5,18.8-67.9c9.8-51.2,8.3-118.7-13.3-122.9c-21.7-4.1-29.2,3.5-25.8,24.8c7.8,49.3-7.7,67.5-26.7,89.1
	c-19,21.6-14-44.9-27.5-39.8c-10.4,4-30.4,38.2-11.1,66.3C569.5,539.6,574.8,544.6,576.6,549.1z"/>
<path class="st0" d="M623.9,598.4c-13-0.8-25.9-4.2-37.5-10.3c-5.2-2.7-9.3-6.4-13.4-10.7c-6.9,41.7,57.5,47.4,62.8,25.2
	c0.3-1.4,0.7-2.8,1.1-4.1C632.6,598.7,628.2,598.7,623.9,598.4z"/>
<path class="st0" d="M550.6,389.5c0,0,29.5-5.5,48-43.3c19-43.9,6.4-60.2,6.4-60.2"/>
<path class="st0" d="M527.9,381.4c0,0,22.8-9.6,32-40.5s-3.8-40-3.8-40"/>
<path class="st0" d="M510.9,414.1c-5.1-5.4-6.7-13.4-4.1-20.5c5-14,13.6-27.8,7.7-35.3c-5.4-6.9-18.2-8-25.6-1.6c0,0,0,0,0-0.1
	c-26.8-62.6-88.7-106.3-160.7-106.3c-5.1,0-10.2,0.2-15.2,0.7l-144.7,104c-9.6,21.8-15,46-15,71.4c0,97.2,78.3,176,174.9,176
	c83.5,0,153.4-58.9,170.7-137.8c10.4-0.5,24-13.9,24-25.8C522.9,429,516.6,420.1,510.9,414.1z"/>
<path class="st0" d="M326.9,310.5c0,0,6.1,12.9,30.5,1.9c24.3-11,39.3-11.1,39.3-11.1s-14.8,0.5-39.3,11.1
	C332.9,322.8,326.9,310.5,326.9,310.5z"/>
<path class="st0" d="M364.7,382.7c0,0-0.2-30.9,21.2-47c16.7-12.7,43.8,24.5,43.8,24.5"/>
<path class="st0" d="M465.9,390.7c-3,2.8-6.7,4.6-9.8,7.3c-4.1,3.6-6.4,9.3-8.2,14c-4,10.6-7.1,20.9-15.9,29.3
	c-6.6,6.3-15.5,10-24.7,6.1c-8.2-3.5-14-10.5-21-15.5c-6.3-4.5,2.5-12.4,8.8-8c2.7,1.9,5.3,4.1,7.8,6.2c5.7,1.5,14.2,3.5,18-1.1
	c3.6-4.4,3.6-11.4,4.2-16.6c1.7-13.1,4.1-28.5,17-36.7c6.6-4.2,15.9-9.4,23.9-5.3C475.3,375.1,471.9,385.1,465.9,390.7z"/>
<line class="st0" x1="92.4" y1="180.4" x2="160.9" y2="278.5"/>
<line class="st0" x1="120.5" y1="154.1" x2="190.9" y2="258.7"/>
<line class="st0" x1="154.1" y1="130.8" x2="220" y2="237.3"/>
<line class="st0" x1="191.2" y1="118.2" x2="246" y2="218.9"/>
<path class="st1" d="M425.3,0c-61.2,0-119.1,13.7-170.9,38.2c-2.7,1.3-5.4,2.6-8,3.9c-1,15.2-3.1,29.8-4.4,38
	c-0.7,4.5,0.2,9.2,2.6,13.1l10,16.4c50.4-29.9,109.2-47,172-47c186.6,0,337.8,151.2,337.8,337.8S613.1,738.3,426.5,738.3
	S88.7,587,88.7,400.5c0-35.4,5.5-69.5,15.5-101.5l-41.9-67.8c-1,2.1-1.9,4.1-2.8,6.2c-22.3,49.8-34.6,105-34.6,163.1
	c0,221.2,179.3,400.5,400.5,400.5s400.5-179.3,400.5-400.5S646.5,0,425.3,0z"/>
</svg>
