<?xml version="1.0" encoding="utf-8"?>
<!-- Generator: Adobe Illustrator 25.2.2, SVG Export Plug-In . SVG Version: 6.00 Build 0)  -->
<svg version="1.1" id="Layer_1" xmlns="http://www.w3.org/2000/svg" xmlns:xlink="http://www.w3.org/1999/xlink" x="0px" y="0px"
	 viewBox="0 0 437.7 191.8" style="enable-background:new 0 0 437.7 191.8;" xml:space="preserve">
<style type="text/css">
	.st0{fill:none;stroke:#FF17F3;stroke-width:7;}
</style>
<g>
	<path class="st0" d="M47.3,100.3H29.9v52.6H12.3V30.1h35c19.4,0,35.2,15.7,35.2,35S66.7,100.3,47.3,100.3z M47.3,47.7H29.9v35h17.4
		c9.7,0,17.6-7.9,17.6-17.6S57,47.7,47.3,47.7z"/>
	<path class="st0" d="M155,152.9h-17.6v-7.4c-4.6,4.6-10.4,7.4-17.4,7.4c-15.8,0-26.4-13.9-26.4-30.8s13.9-30.6,30.8-30.6h13v-4.4
		c0-7.2-5.8-13.2-13-13.2s-13.2,6-13.2,13.2H93.6c0-16.9,13.9-30.8,30.8-30.8S155,70.2,155,87.1V152.9z M137.4,109.1h-13
		c-7.2,0-13.2,5.8-13.2,13c0,7.2,6,13.2,13.2,13.2s13-6,13-13.2V109.1z"/>
	<path class="st0" d="M238.5,152.9h-17.6V87.1c0-7.2-5.8-13.2-13-13.2s-13.2,6-13.2,13.2v65.8H177V56.3h17.6v7.4
		c4.6-4.6,10.4-7.4,17.4-7.4c15.8,0,26.4,13.9,26.4,30.8V152.9z"/>
	<path class="st0" d="M300.8,152.9H292c-19,0-30.6-11.8-30.6-30.8V73.9h-8.8V56.3h8.8V38.9h17.6v17.4h21.8v17.6h-21.8v48.2
		c0,9.3,3.7,13.9,13,13.9h8.8V152.9z"/>
	<path class="st0" d="M360.9,73.9h-13c-7.2,0-13.2,6-13.2,13.2v65.8h-17.6V56.3h17.6v7.4c4.6-4.6,10.4-7.4,17.4-7.4h8.8V73.9z"/>
	<path class="st0" d="M429.1,56.3l-34.3,127.4h-18.1l8.3-30.8l-26-96.6h18l17.2,66.4l17.1-66.4H429.1z"/>
</g>
</svg>
