<?xml version="1.0" encoding="utf-8"?>
<!-- Generator: Adobe Illustrator 25.2.2, SVG Export Plug-In . SVG Version: 6.00 Build 0)  -->
<svg version="1.1" id="Layer_1" xmlns="http://www.w3.org/2000/svg" xmlns:xlink="http://www.w3.org/1999/xlink" x="0px" y="0px"
	 viewBox="0 0 529.9 191.8" style="enable-background:new 0 0 529.9 191.8;" xml:space="preserve">
<style type="text/css">
	.st0{enable-background:new    ;}
	.st1{fill:none;stroke:#FF17F3;stroke-width:7;}
</style>
<g class="st0">
	<path class="st1" d="M82.5,152.9H62.8l-26.2-52.6h-6.7v52.6H12.3V30.1h35c19.4,0,35.2,15.7,35.2,35c0,16.5-11.6,30.4-26.9,34.1
		L82.5,152.9z M47.3,47.7H29.9v35h17.4c9.7,0,17.6-7.9,17.6-17.6S57,47.7,47.3,47.7z"/>
	<path class="st1" d="M156.6,122.1c0,16.9-13.7,30.8-30.6,30.8S95.2,139,95.2,122.1v-35c0-16.9,13.9-30.8,30.8-30.8
		s30.6,13.9,30.6,30.8v22h-43.8v13c0,7.2,6,13.2,13.2,13.2s13-6,13-13.2H156.6z M139,91.5v-4.4c0-7.2-5.8-13.2-13-13.2
		s-13.2,6-13.2,13.2v4.4H139z"/>
	<path class="st1" d="M236.3,122.1c0,16.9-13.7,30.8-30.6,30.8s-30.8-13.9-30.8-30.8v-35c0-16.9,13.9-30.8,30.8-30.8
		s30.6,13.9,30.6,30.8h-17.6c0-7.2-5.8-13.2-13-13.2s-13.2,6-13.2,13.2v35c0,7.2,6,13.2,13.2,13.2s13-6,13-13.2H236.3z"/>
	<path class="st1" d="M270.7,43.3h-17.6V25.7h17.6V43.3z M270.7,152.9h-17.6V56.3h17.6V152.9z"/>
	<path class="st1" d="M353.9,122.1c0,16.9-10.6,30.8-26.4,30.8c-7,0-12.8-2.8-17.4-7.4v38.2h-17.6V56.3h17.6v7.4
		c4.6-4.6,10.4-7.4,17.4-7.4c15.8,0,26.4,13.9,26.4,30.8V122.1z M336.3,87.1c0-7.2-5.8-13.2-13-13.2c-7.2,0-13.2,6-13.2,13.2v35
		c0,7.2,6,13.2,13.2,13.2c7.2,0,13-6,13-13.2V87.1z"/>
	<path class="st1" d="M433.6,122.1c0,16.9-13.7,30.8-30.6,30.8s-30.8-13.9-30.8-30.8v-35c0-16.9,13.9-30.8,30.8-30.8
		s30.6,13.9,30.6,30.8v22h-43.8v13c0,7.2,6,13.2,13.2,13.2s13-6,13-13.2H433.6z M416,91.5v-4.4c0-7.2-5.8-13.2-13-13.2
		s-13.2,6-13.2,13.2v4.4H416z"/>
	<path class="st1" d="M481,152.9c-16.9,0-30.8-13.9-30.8-30.8h17.6c0,7.2,6,13.2,13.2,13.2s13-4.9,13-10.9c0-6-5.8-10.9-13-10.9
		c-16.9,0-30.8-12.7-30.8-28.5c0-15.8,13.9-28.7,30.8-28.7s30.6,13.9,30.6,30.8H494c0-7.2-5.8-13.2-13-13.2S467.8,79,467.8,85
		c0,6,6,10.9,13.2,10.9c16.9,0,30.6,12.7,30.6,28.5C511.6,140.3,497.9,152.9,481,152.9z"/>
</g>
</svg>
